HIERARCHY
ROOT Hips
{
	OFFSET 0.000000 83.214638 0.000000
	CHANNELS 6 Xposition Yposition Zposition Xrotation Yrotation Zrotation
	JOINT Pelvis
	{
		OFFSET 0.000000 0.000000 0.000000
		CHANNELS 3 Xrotation Yrotation Zrotation
		JOINT LeftUpLeg
		{
			OFFSET 8.479700 -4.795502 -0.379100
			CHANNELS 3 Xrotation Yrotation Zrotation
			JOINT LeftLeg
			{
				OFFSET 0.024144 -32.555107 0.112900
				CHANNELS 3 Xrotation Yrotation Zrotation
				JOINT LeftFoot
				{
					OFFSET -0.024144 -32.638630 -3.012600
					CHANNELS 3 Xrotation Yrotation Zrotation
					JOINT LeftToeBase
					{
						OFFSET 0.970200 -13.225400 11.864200
						CHANNELS 3 Xrotation Yrotation Zrotation
						End Site
						{
							OFFSET 0.000000 12.319262 0.000000
						}
					}
					JOINT LFootTongue
					{
						OFFSET 1.142400 -1.059800 6.665200
						CHANNELS 3 Xrotation Yrotation Zrotation
						End Site
						{
							OFFSET 0.000000 12.319262 0.000000
						}
					}
				}
				JOINT LeftPantLeg
				{
					OFFSET 0.918482 -16.533964 -2.284700
					CHANNELS 3 Xrotation Yrotation Zrotation
					End Site
					{
						OFFSET 0.350399 24.744368 0.000000
					}
				}
			}
		}
		JOINT RightUpLeg
		{
			OFFSET -8.479700 -4.795502 -0.379100
			CHANNELS 3 Xrotation Yrotation Zrotation
			JOINT RightLeg
			{
				OFFSET -0.023144 -32.555092 0.112900
				CHANNELS 3 Xrotation Yrotation Zrotation
				JOINT RightFoot
				{
					OFFSET 0.023144 -32.638641 -3.012700
					CHANNELS 3 Xrotation Yrotation Zrotation
					JOINT RightToeBase
					{
						OFFSET -0.970200 -13.225400 11.864200
						CHANNELS 3 Xrotation Yrotation Zrotation
						End Site
						{
							OFFSET 0.000000 12.319244 0.000000
						}
					}
					JOINT RFootTongue
					{
						OFFSET -1.142200 -1.059800 6.665200
						CHANNELS 3 Xrotation Yrotation Zrotation
						End Site
						{
							OFFSET 0.000000 12.319243 0.000000
						}
					}
				}
				JOINT RightPantLeg
				{
					OFFSET -0.919482 -16.533978 -2.284800
					CHANNELS 3 Xrotation Yrotation Zrotation
					End Site
					{
						OFFSET -0.350400 24.744419 0.000000
					}
				}
			}
		}
	}
	JOINT Spine
	{
		OFFSET 0.000000 7.722000 1.166200
		CHANNELS 3 Xrotation Yrotation Zrotation
		JOINT Spine1
		{
			OFFSET 0.000000 12.024101 0.248800
			CHANNELS 3 Xrotation Yrotation Zrotation
			JOINT Spine2
			{
				OFFSET 0.000000 11.502998 -0.491200
				CHANNELS 3 Xrotation Yrotation Zrotation
				JOINT Neck
				{
					OFFSET 0.000000 18.430702 -3.123100
					CHANNELS 3 Xrotation Yrotation Zrotation
					JOINT Head
					{
						OFFSET 0.000000 9.051102 1.034000
						CHANNELS 3 Xrotation Yrotation Zrotation
						JOINT HairB
						{
							OFFSET 0.208400 24.786102 24.822300
							CHANNELS 3 Xrotation Yrotation Zrotation
							End Site
							{
								OFFSET 0.000000 32.263779 0.000000
							}
						}
						JOINT HairA
						{
							OFFSET -7.081100 24.428299 23.196600
							CHANNELS 3 Xrotation Yrotation Zrotation
							End Site
							{
								OFFSET 0.000000 32.263779 0.000000
							}
						}
						JOINT Hat
						{
							OFFSET 16.728800 15.048294 -15.439601
							CHANNELS 3 Xrotation Yrotation Zrotation
							End Site
							{
								OFFSET 0.000000 32.263779 0.000000
							}
						}
					}
				}
				JOINT LeftShoulder
				{
					OFFSET 6.197800 13.665199 -4.064700
					CHANNELS 3 Xrotation Yrotation Zrotation
					JOINT LeftArm
					{
						OFFSET 7.778100 -0.187103 -1.709300
						CHANNELS 3 Xrotation Yrotation Zrotation
						JOINT LeftForeArm
						{
							OFFSET 22.049376 0.000000 0.000000
							CHANNELS 3 Xrotation Yrotation Zrotation
							JOINT LeftHand
							{
								OFFSET 23.009392 0.000000 0.000000
								CHANNELS 3 Xrotation Yrotation Zrotation
								JOINT LeftHandThumb1
								{
									OFFSET 3.507191 -2.063065 3.133727
									CHANNELS 3 Xrotation Yrotation Zrotation
									JOINT LeftHandThumb2
									{
										OFFSET 3.101337 -1.790558 1.790558
										CHANNELS 3 Xrotation Yrotation Zrotation
										JOINT LeftHandThumb3
										{
											OFFSET 3.058640 -1.765907 1.765906
											CHANNELS 3 Xrotation Yrotation Zrotation
											End Site
											{
												OFFSET -0.415260 3.926476 -0.049563
											}
										}
									}
								}
								JOINT LeftHandIndex1
								{
									OFFSET 11.334419 -0.901459 3.706815
									CHANNELS 3 Xrotation Yrotation Zrotation
									JOINT LeftHandIndex2
									{
										OFFSET 3.283112 0.000000 0.000000
										CHANNELS 3 Xrotation Yrotation Zrotation
										JOINT LeftHandIndex3
										{
											OFFSET 3.323853 0.000000 0.000000
											CHANNELS 3 Xrotation Yrotation Zrotation
											End Site
											{
												OFFSET -1.135597 3.097809 0.402452
											}
										}
									}
								}
								JOINT LeftHandMiddle1
								{
									OFFSET 11.335861 0.000000 0.000000
									CHANNELS 3 Xrotation Yrotation Zrotation
									JOINT LeftHandMiddle2
									{
										OFFSET 3.410492 0.000000 0.000000
										CHANNELS 3 Xrotation Yrotation Zrotation
										JOINT LeftHandMiddle3
										{
											OFFSET 3.312172 0.000000 0.000000
											CHANNELS 3 Xrotation Yrotation Zrotation
											End Site
											{
												OFFSET -1.150200 3.080154 0.400270
											}
										}
									}
								}
								JOINT LeftHandRing1
								{
									OFFSET 11.514786 -0.013176 -3.003090
									CHANNELS 3 Xrotation Yrotation Zrotation
									JOINT LeftHandRing2
									{
										OFFSET 3.053307 0.000000 0.000000
										CHANNELS 3 Xrotation Yrotation Zrotation
										JOINT LeftHandRing3
										{
											OFFSET 3.295807 0.000000 0.000000
											CHANNELS 3 Xrotation Yrotation Zrotation
											End Site
											{
												OFFSET -1.281006 3.013344 0.375733
											}
										}
									}
								}
								JOINT LeftHandPinky1
								{
									OFFSET 10.518692 -0.960396 -5.730441
									CHANNELS 3 Xrotation Yrotation Zrotation
									JOINT LeftHandPinky2
									{
										OFFSET 2.861649 0.000000 0.000000
										CHANNELS 3 Xrotation Yrotation Zrotation
										JOINT LeftHandPinky3
										{
											OFFSET 2.863380 0.000000 0.000000
											CHANNELS 3 Xrotation Yrotation Zrotation
											End Site
											{
												OFFSET -0.843597 2.711159 0.369971
											}
										}
									}
								}
							}
							JOINT LSleeve
							{
								OFFSET 6.676277 -0.344902 -1.011730
								CHANNELS 3 Xrotation Yrotation Zrotation
								End Site
								{
									OFFSET 0.000000 14.885353 0.000000
								}
							}
						}
					}
				}
				JOINT RightShoulder
				{
					OFFSET -6.197800 13.665199 -4.064700
					CHANNELS 3 Xrotation Yrotation Zrotation
					JOINT RightArm
					{
						OFFSET -7.778100 -0.187103 -1.709300
						CHANNELS 3 Xrotation Yrotation Zrotation
						JOINT RightForeArm
						{
							OFFSET -22.049376 0.000000 0.000000
							CHANNELS 3 Xrotation Yrotation Zrotation
							JOINT RightHand
							{
								OFFSET -23.009392 0.000000 0.000000
								CHANNELS 3 Xrotation Yrotation Zrotation
								JOINT RightHandThumb1
								{
									OFFSET -3.507191 -2.063065 3.133727
									CHANNELS 3 Xrotation Yrotation Zrotation
									JOINT RightHandThumb2
									{
										OFFSET -3.101337 -1.790558 1.790558
										CHANNELS 3 Xrotation Yrotation Zrotation
										JOINT RightHandThumb3
										{
											OFFSET -3.058640 -1.765907 1.765906
											CHANNELS 3 Xrotation Yrotation Zrotation
											End Site
											{
												OFFSET 0.415260 3.926476 -0.049563
											}
										}
									}
								}
								JOINT RightHandIndex1
								{
									OFFSET -11.334419 -0.901459 3.706815
									CHANNELS 3 Xrotation Yrotation Zrotation
									JOINT RightHandIndex2
									{
										OFFSET -3.283112 0.000000 0.000000
										CHANNELS 3 Xrotation Yrotation Zrotation
										JOINT RightHandIndex3
										{
											OFFSET -3.323853 0.000000 0.000000
											CHANNELS 3 Xrotation Yrotation Zrotation
											End Site
											{
												OFFSET 1.135597 3.097809 0.402452
											}
										}
									}
								}
								JOINT RightHandMiddle1
								{
									OFFSET -11.335861 0.000000 0.000000
									CHANNELS 3 Xrotation Yrotation Zrotation
									JOINT RightHandMiddle2
									{
										OFFSET -3.410492 0.000000 0.000000
										CHANNELS 3 Xrotation Yrotation Zrotation
										JOINT RightHandMiddle3
										{
											OFFSET -3.312172 0.000000 0.000000
											CHANNELS 3 Xrotation Yrotation Zrotation
											End Site
											{
												OFFSET 1.150200 3.080154 0.400270
											}
										}
									}
								}
								JOINT RightHandRing1
								{
									OFFSET -11.514786 -0.013176 -3.003090
									CHANNELS 3 Xrotation Yrotation Zrotation
									JOINT RightHandRing2
									{
										OFFSET -3.053307 0.000000 0.000000
										CHANNELS 3 Xrotation Yrotation Zrotation
										JOINT RightHandRing3
										{
											OFFSET -3.295807 0.000000 0.000000
											CHANNELS 3 Xrotation Yrotation Zrotation
											End Site
											{
												OFFSET 1.281006 3.013344 0.375733
											}
										}
									}
								}
								JOINT RightHandPinky1
								{
									OFFSET -10.518692 -0.960396 -5.730441
									CHANNELS 3 Xrotation Yrotation Zrotation
									JOINT RightHandPinky2
									{
										OFFSET -2.861649 0.000000 0.000000
										CHANNELS 3 Xrotation Yrotation Zrotation
										JOINT RightHandPinky3
										{
											OFFSET -2.863380 0.000000 0.000000
											CHANNELS 3 Xrotation Yrotation Zrotation
											End Site
											{
												OFFSET 0.843597 2.711159 0.369971
											}
										}
									}
								}
							}
							JOINT RSleeve
							{
								OFFSET -6.676277 -0.344902 -1.011730
								CHANNELS 3 Xrotation Yrotation Zrotation
								End Site
								{
									OFFSET 0.000000 14.885353 0.000000
								}
							}
						}
					}
				}
				JOINT Backpack
				{
					OFFSET 0.000000 -2.471497 36.677502
					CHANNELS 3 Xrotation Yrotation Zrotation
					End Site
					{
						OFFSET 0.000000 20.427315 0.000000
					}
				}
				JOINT Hood
				{
					OFFSET 0.000000 18.754097 -10.431000
					CHANNELS 3 Xrotation Yrotation Zrotation
					JOINT Hood1
					{
						OFFSET 0.000000 -5.011002 -7.685901
						CHANNELS 3 Xrotation Yrotation Zrotation
						End Site
						{
							OFFSET 0.000000 9.175140 0.000000
						}
					}
				}
				JOINT LHoodieString
				{
					OFFSET 5.250500 16.397697 3.089900
					CHANNELS 3 Xrotation Yrotation Zrotation
					JOINT LHoodieString1
					{
						OFFSET 0.257700 -6.364304 3.694600
						CHANNELS 3 Xrotation Yrotation Zrotation
						JOINT LHoodieString2
						{
							OFFSET 0.000000 -9.643799 2.679100
							CHANNELS 3 Xrotation Yrotation Zrotation
							End Site
							{
								OFFSET 0.000000 10.009018 0.000000
							}
						}
					}
				}
				JOINT RHoodieString
				{
					OFFSET -5.250500 16.397697 3.089900
					CHANNELS 3 Xrotation Yrotation Zrotation
					JOINT RHoodieString1
					{
						OFFSET -0.257700 -6.364304 3.694600
						CHANNELS 3 Xrotation Yrotation Zrotation
						JOINT RHoodieString2
						{
							OFFSET 0.000000 -9.643799 2.679100
							CHANNELS 3 Xrotation Yrotation Zrotation
							End Site
							{
								OFFSET 0.000000 10.009018 0.000000
							}
						}
					}
				}
			}
			JOINT LBackpack_Strap
			{
				OFFSET 15.223200 -7.719803 -6.610900
				CHANNELS 3 Xrotation Yrotation Zrotation
				End Site
				{
					OFFSET 0.000000 16.040596 0.000000
				}
			}
			JOINT RBackpack_Strap
			{
				OFFSET -15.223000 -7.719803 -6.610900
				CHANNELS 3 Xrotation Yrotation Zrotation
				End Site
				{
					OFFSET 0.000000 16.040596 0.000000
				}
			}
		}
	}
	JOINT BoyFacialAnim_Joint
	{
		OFFSET 1.000000 -82.208099 -1.550900
		CHANNELS 3 Xrotation Yrotation Zrotation
		End Site
		{
			OFFSET 0.000000 30.012791 0.000000
		}
	}
}
MOTION
Frames: 4
Frame Time: 0.016667
-0.169202 73.867889 0.174977 3.016509 -58.257354 6.570235 -0.000000 -0.000000 -0.000000 -35.249865 10.175199 24.287755 43.161154 -7.481277 -9.789067 -9.608922 -2.809829 -8.081555 0.000000 -0.000003 0.000000 0.000000 -0.000003 0.000000 0.000001 -0.000001 0.000001 -32.837466 -8.273079 -25.543058 48.057901 2.419849 -7.553119 -19.172992 2.835484 20.742429 -0.000000 0.000001 0.000000 -0.000000 0.000001 0.000000 0.000001 -0.000000 0.000001 11.191589 0.111548 -2.787770 8.434584 0.027708 -5.592326 8.457049 0.027865 -5.591872 -21.555645 25.063367 12.062564 -0.294043 25.465752 -3.208974 0.000000 -0.000000 0.000000 0.000000 -0.000000 0.000000 0.000000 -0.000000 0.000000 -6.221668 -11.503859 -4.023826 -23.062176 9.568548 -36.639600 0.046109 -43.169121 -0.011165 22.743751 -5.685855 15.979284 -1.064236 -7.954920 8.490075 2.373417 19.986086 -2.038339 0.000001 0.000000 -0.000001 13.340881 -1.006690 10.682255 -0.167581 0.303390 -31.105634 -0.000002 0.000003 -0.000005 8.495448 -0.329575 -0.915318 0.231515 0.661200 -29.901865 -0.000001 -0.000001 -0.000002 6.111754 3.150877 -16.210966 0.047060 0.322404 -30.125485 -0.000001 0.000000 -0.000002 -5.636018 7.709852 -13.878622 0.224393 0.276608 -46.588382 -0.000002 -0.000000 0.000001 0.000002 0.000001 -0.000001 -5.488235 10.658259 2.466538 -41.473810 -26.755577 30.079071 24.955505 111.862987 -23.308505 -8.702508 12.423035 -9.801978 0.265005 10.061111 -10.888478 1.383832 -17.412881 3.016295 -0.000000 0.000001 0.000000 19.443604 11.174441 -13.340184 -0.118656 -0.322729 18.035593 -0.000001 -0.000001 -0.000000 4.320487 2.436928 -4.811723 0.349131 -0.461235 26.890327 -0.000001 -0.000002 0.000001 -7.005606 -10.695161 5.719851 0.111856 -0.089200 26.155888 -0.000001 -0.000002 0.000000 -19.433498 -20.238224 5.987872 0.223776 -0.085834 36.844547 -0.000002 -0.000001 -0.000002 -0.000001 -0.000001 -0.000003 0.000001 -0.000002 0.000001 0.000001 -0.000002 0.000001 0.000001 -0.000002 0.000001 0.000001 -0.000002 0.000001 0.000001 -0.000002 0.000001 0.000001 -0.000000 -0.000000 0.000001 -0.000002 0.000001 0.000001 -0.000002 0.000001 0.000001 -0.000000 -0.000000 0.000001 0.000002 -0.000000 0.000001 0.000002 -0.000000 -0.000000 -0.000000 -0.000000 
-0.183850 73.868233 0.219120 3.082064 -58.300220 6.602149 -0.000000 -0.000000 -0.000000 -35.322631 10.084619 24.276897 43.339654 -7.407088 -9.746438 -9.594072 -2.799104 -8.150909 0.000000 0.000001 0.000000 0.000000 0.000001 -0.000000 0.000000 0.000001 -0.000002 -32.819817 -8.142402 -25.443814 48.064362 2.315245 -7.622862 -19.078716 2.814716 20.880786 -0.000000 0.000000 0.000000 -0.000000 0.000000 0.000000 -0.000001 -0.000000 0.000003 11.114407 0.127873 -2.762996 8.281122 0.065561 -5.543477 8.303561 0.065717 -5.543008 -21.313511 24.821456 11.931888 -0.501502 25.223305 -3.073468 0.000000 -0.000001 -0.000001 0.000000 -0.000001 -0.000001 0.000000 -0.000001 -0.000001 -5.888012 -11.348873 -4.111612 -23.088843 9.805528 -36.732074 -0.223605 -43.320366 -0.178071 22.774830 -5.786700 15.762760 -1.013345 -7.979049 8.385267 2.373248 19.985735 -2.038475 -0.000001 0.000001 0.000001 13.392772 -0.857330 10.369734 -0.168834 0.304178 -31.279138 -0.000001 0.000003 -0.000005 8.501713 -0.177912 -1.121776 0.233298 0.661446 -30.053645 -0.000002 -0.000002 -0.000004 6.115920 3.344577 -16.345855 0.048428 0.323115 -30.253046 0.000001 0.000001 -0.000004 -5.669040 7.954086 -13.849582 0.224925 0.276691 -46.648761 -0.000000 0.000000 -0.000000 0.000002 0.000001 -0.000001 -5.146256 10.690681 2.467583 -41.573750 -27.076224 29.890042 27.927870 112.638323 -26.280082 -8.524175 12.683894 -9.630393 0.058325 10.763360 -10.139021 1.383876 -17.413052 3.016228 0.000000 0.000001 0.000001 19.385101 11.008859 -11.664735 -0.125436 -0.326346 19.069075 0.000001 -0.000002 0.000001 4.347760 1.811614 -3.663104 0.356073 -0.461084 27.691737 -0.000003 0.000001 0.000000 -6.837577 -11.512220 6.465787 0.115963 -0.091571 26.770261 -0.000001 -0.000001 -0.000005 -19.227273 -20.531333 6.567960 0.226161 -0.086344 37.287335 0.000000 -0.000002 -0.000002 0.000001 -0.000001 -0.000002 0.000003 -0.000001 0.000001 0.000003 -0.000001 0.000001 0.000003 -0.000001 0.000001 0.000003 -0.000001 0.000001 0.000003 -0.000001 0.000001 0.000002 0.000000 -0.000000 0.000003 -0.000001 0.000001 0.000003 -0.000001 0.000001 0.000002 0.000000 -0.000000 0.000001 -0.000001 0.000001 0.000001 -0.000001 0.000001 -0.000000 -0.000000 -0.000000 
-0.198835 73.862534 0.263445 3.147685 -58.343059 6.634305 -0.000000 -0.000001 0.000000 -35.384854 10.002184 24.254782 43.511659 -7.320945 -9.702154 -9.615000 -2.793524 -8.167554 -0.000000 0.000002 -0.000000 -0.000000 0.000002 -0.000000 0.000000 0.000000 0.000000 -32.793623 -8.020083 -25.337685 48.064861 2.195476 -7.692941 -19.017301 2.798239 20.975765 -0.000000 -0.000000 0.000000 -0.000000 -0.000000 0.000000 -0.000000 0.000001 -0.000001 11.105226 0.141219 -2.748370 8.263416 0.094359 -5.514626 8.285900 0.094468 -5.514150 -21.429184 24.538196 11.838501 -0.484134 24.969432 -3.032915 0.000000 -0.000000 -0.000000 0.000000 -0.000000 -0.000000 0.000000 -0.000000 -0.000000 -5.880235 -11.203435 -4.136709 -23.070911 10.188957 -36.902563 -0.778798 -43.644014 -0.618952 22.885915 -5.874756 15.640297 -0.936051 -7.901294 8.281052 2.381465 20.006181 -2.031153 -0.000000 -0.000000 -0.000001 13.380401 -0.903479 10.415420 -0.168398 0.303891 -31.216266 -0.000000 -0.000000 -0.000000 8.500998 -0.157123 -1.020051 0.232479 0.661335 -29.983543 -0.000002 -0.000001 -0.000002 6.103015 3.435145 -16.138195 0.047756 0.322738 -30.188856 -0.000003 0.000001 -0.000004 -5.677996 8.064668 -13.509525 0.223982 0.276484 -46.546158 0.000002 -0.000002 -0.000004 0.000001 0.000001 0.000001 -5.152147 10.691573 2.515985 -41.675345 -27.395452 29.700357 30.755051 113.473785 -29.096480 -7.964723 12.641086 -9.574785 -0.272431 11.449461 -9.779569 1.392603 -17.434070 3.008421 -0.000002 0.000002 -0.000002 19.283198 11.017651 -10.724535 -0.128898 -0.328182 19.592155 -0.000002 0.000001 0.000007 4.335208 1.528080 -2.596399 0.361445 -0.460794 28.315639 -0.000003 0.000001 -0.000002 -6.574463 -12.132989 7.760415 0.121335 -0.094762 27.577529 -0.000000 -0.000004 0.000003 -18.816278 -22.103008 7.642814 0.231387 -0.087321 38.248868 -0.000003 0.000000 0.000000 0.000001 -0.000001 0.000002 -0.000002 0.000001 -0.000001 -0.000002 0.000001 -0.000001 -0.000002 0.000001 -0.000001 -0.000002 0.000001 -0.000001 -0.000002 0.000001 -0.000000 -0.000003 -0.000001 -0.000001 -0.000002 0.000001 -0.000001 -0.000002 0.000001 -0.000000 -0.000003 -0.000001 -0.000001 -0.000000 -0.000003 0.000001 -0.000000 -0.000003 0.000001 -0.000000 -0.000001 0.000000 
-0.212287 73.841339 0.313993 3.255209 -58.380065 6.711348 0.000000 0.000001 0.000000 -35.501650 9.883143 24.209833 43.764229 -7.215545 -9.644746 -9.651610 -2.783083 -8.189322 -0.000000 -0.000001 0.000000 -0.000000 -0.000001 -0.000000 -0.000001 -0.000004 0.000000 -32.815651 -7.846820 -25.234983 48.133333 2.053298 -7.774147 -18.954132 2.775109 21.086812 0.000000 0.000000 -0.000000 0.000000 0.000000 -0.000000 -0.000000 -0.000001 -0.000000 11.091560 0.158412 -2.732186 8.236890 0.130319 -5.482838 8.259370 0.130443 -5.482361 -21.566061 24.146889 11.698336 -0.461436 24.621503 -2.974630 -0.000000 0.000001 -0.000000 -0.000000 0.000001 -0.000000 -0.000000 0.000001 -0.000000 -5.870542 -11.061404 -4.171698 -22.987246 10.659092 -37.048421 -1.551466 -44.072093 -1.371586 23.004907 -5.957686 15.638850 -0.867461 -7.784707 8.163939 2.371684 19.981937 -2.039803 0.000002 -0.000001 0.000001 13.356447 -0.993998 10.520308 -0.167642 0.303524 -31.113185 0.000001 -0.000002 0.000001 8.488155 -0.166985 -0.852470 0.231251 0.661064 -29.882942 -0.000001 -0.000000 0.000002 6.084686 3.499117 -15.846336 0.046799 0.322329 -30.097416 -0.000000 -0.000001 0.000001 -5.685236 8.137446 -13.084721 0.222764 0.276406 -46.402372 -0.000002 -0.000001 0.000001 -0.000000 0.000000 0.000002 -5.178397 10.652672 2.668575 -41.781992 -27.790447 29.400754 35.112742 114.823403 -33.451388 -7.092255 12.745469 -9.489337 -0.610332 12.109769 -9.454122 1.382304 -17.409252 3.017633 -0.000000 0.000002 0.000001 19.197049 10.951343 -9.698038 -0.132393 -0.330080 20.134785 -0.000002 0.000000 0.000002 4.354855 1.175956 -1.362039 0.367468 -0.460510 29.018981 0.000002 0.000003 -0.000003 -6.208835 -12.853192 9.348221 0.127955 -0.098450 28.547273 0.000001 -0.000000 0.000006 -18.118825 -23.348853 9.489324 0.237876 -0.088354 39.442461 -0.000004 -0.000001 0.000002 0.000000 0.000000 -0.000001 0.000003 0.000000 -0.000001 0.000003 0.000000 -0.000001 0.000003 0.000000 -0.000001 0.000003 0.000000 -0.000001 0.000003 0.000000 -0.000002 0.000002 -0.000003 0.000002 0.000003 0.000000 -0.000001 0.000003 0.000000 -0.000002 0.000002 -0.000003 0.000002 -0.000000 0.000001 -0.000000 -0.000000 0.000001 -0.000000 0.000000 0.000001 0.000000 
